REM MD5 935687188e8906acab029e390b548845
FILE "Community Pom (Japan).bin" BINARY
  TRACK 01 MODE2/2352
    INDEX 01 00:00:00
  TRACK 02 AUDIO
    INDEX 00 09:25:72
    INDEX 01 09:27:72
  TRACK 03 AUDIO
    INDEX 00 10:08:18
    INDEX 01 10:10:18
  TRACK 04 AUDIO
    INDEX 00 11:21:25
    INDEX 01 11:23:25
  TRACK 05 AUDIO
    INDEX 00 14:35:53
    INDEX 01 14:37:53
REM LEADOUT 17:37:53
